<svg width="105" height="40" viewBox="0 0 105 40" fill="none" xmlns="http://www.w3.org/2000/svg">
<path d="M50.1961 12.1231C49.912 12.2462 49.5538 12.3385 49.1214 12.4001C48.7014 12.4616 48.2629 12.4924 47.8058 12.4924C44.7053 12.4924 43.155 11.1385 43.155 8.43082V7.13851C43.155 6.51082 43.0685 6.04928 42.8955 5.7539C42.7226 5.44621 42.3767 5.29236 41.8579 5.29236H41.6726V4.73851H43.8961C44.3408 4.73851 44.6805 4.81236 44.9153 4.96005C45.15 5.10775 45.3167 5.3539 45.4155 5.69851C45.5144 6.03082 45.5638 6.51082 45.5638 7.13851V8.61544C45.5638 9.60005 45.7985 10.357 46.2679 10.8862C46.7497 11.4031 47.3797 11.6616 48.1579 11.6616C48.8744 11.6616 49.5538 11.5385 50.1961 11.2924V4.73851H52.605V16.9231H50.1961V12.1231ZM55.738 7.13851C55.738 6.51082 55.6515 6.04928 55.4786 5.7539C55.3056 5.44621 54.9597 5.29236 54.4409 5.29236H54.2556V4.73851H56.4791C56.9239 4.73851 57.2636 4.81236 57.4983 4.96005C57.733 5.10775 57.8997 5.3539 57.9986 5.69851C58.0974 6.03082 58.1468 6.51082 58.1468 7.13851V14.5231L63.5203 4.73851H65.7439V16.9231H63.335V7.13851L57.9615 16.9231H55.738V7.13851ZM71.4135 5.56928H70.098C69.4062 5.56928 68.875 5.74159 68.5044 6.08621C68.1462 6.43082 67.9671 6.99698 67.9671 7.78467H67.4112V6.21544C67.4112 5.23082 67.9362 4.73851 68.9862 4.73851H77.695V5.56928H73.8224V16.9231H71.4135V5.56928ZM88.1246 16.997C87.3464 16.997 86.6423 16.837 86.0123 16.517C85.3823 16.1847 84.8696 15.5447 84.4743 14.597L84.0481 13.5631H79.1193L77.5999 16.9231H76.6364L82.1025 4.73851H82.9364L87.087 14.597C87.5564 15.7416 88.1987 16.357 89.014 16.4431V16.9047C88.7917 16.9662 88.4952 16.997 88.1246 16.997ZM79.5084 12.7324H83.6961L81.6578 7.9139L79.5084 12.7324ZM90.2454 7.13851C90.2454 6.51082 90.159 6.04928 89.986 5.7539C89.8131 5.44621 89.4672 5.29236 88.9484 5.29236H88.7631V4.73851H90.9866C91.4313 4.73851 91.771 4.81236 92.0058 4.96005C92.2405 5.10775 92.4072 5.3539 92.506 5.69851C92.6049 6.03082 92.6543 6.51082 92.6543 7.13851V14.5231L98.0278 4.73851H100.251V16.9231H97.8425V7.13851L92.469 16.9231H90.2454V7.13851ZM95.2299 3.90774C94.6369 3.90774 94.1119 3.7539 93.6549 3.44621C93.1978 3.12621 92.8519 2.70159 92.6172 2.17236L93.136 1.78467C93.346 2.04313 93.624 2.26467 93.9699 2.44928C94.3281 2.62159 94.7481 2.70774 95.2299 2.70774C95.7116 2.70774 96.1255 2.62159 96.4713 2.44928C96.8296 2.26467 97.1137 2.04313 97.3237 1.78467L97.8425 2.17236C97.6078 2.70159 97.2619 3.12621 96.8049 3.44621C96.3478 3.7539 95.8228 3.90774 95.2299 3.90774ZM53.3832 37.1077C52.605 37.1077 51.8576 36.9539 51.1411 36.6462C50.437 36.3262 49.6773 35.7416 48.862 34.8924L45.8788 31.7908V36.9231H43.47L43.4514 27.1385C43.4514 26.5108 43.365 26.0493 43.192 25.7539C43.0191 25.4462 42.6732 25.2924 42.1544 25.2924H41.9691V24.7385H44.1926C44.625 24.7385 44.9585 24.8124 45.1932 24.9601C45.4403 25.1077 45.6132 25.3539 45.712 25.6985C45.8232 26.0431 45.8788 26.5231 45.8788 27.1385V30.6462L49.0844 26.677C49.5414 26.0862 50.0294 25.6185 50.5482 25.2739C51.0794 24.917 51.6847 24.7385 52.3641 24.7385H53.6611V25.3847C52.8953 25.3847 52.2344 25.4831 51.6785 25.6801C51.135 25.8647 50.6655 26.2031 50.2703 26.6954L47.5094 30.0924L51.7897 34.5231C52.2467 35.0277 52.7594 35.4708 53.3276 35.8524C53.9082 36.2216 54.3776 36.4308 54.7358 36.4801V36.9231C54.3653 37.0462 53.9144 37.1077 53.3832 37.1077ZM56.299 27.1385C56.299 26.5108 56.2125 26.0493 56.0395 25.7539C55.8666 25.4462 55.5207 25.2924 55.0019 25.2924H54.8166V24.7385H57.0401C57.4848 24.7385 57.8245 24.8124 58.0592 24.9601C58.294 25.1077 58.4607 25.3539 58.5595 25.6985C58.6584 26.0308 58.7078 26.5108 58.7078 27.1385V30.1847H63.7107V24.7385H66.1195V34.5231C66.1195 35.1508 66.206 35.6185 66.379 35.9262C66.5519 36.2216 66.8978 36.3693 67.4166 36.3693H67.6019V36.9231H65.3784C64.9337 36.9231 64.594 36.8554 64.3592 36.7201C64.1245 36.5724 63.9578 36.3324 63.859 36.0001C63.7601 35.6554 63.7107 35.1631 63.7107 34.5231V31.0154H58.7078V36.9231H56.299V27.1385ZM69.635 27.1385C69.635 26.5108 69.5486 26.0493 69.3756 25.7539C69.2027 25.4462 68.8568 25.2924 68.338 25.2924H68.1527V24.7385H70.3762C70.8209 24.7385 71.1606 24.8124 71.3953 24.9601C71.63 25.1077 71.7968 25.3539 71.8956 25.6985C71.9944 26.0308 72.0439 26.5108 72.0439 27.1385V34.5231L77.4174 24.7385H79.6409V36.9231H77.2321V27.1385L71.8586 36.9231H69.635V27.1385ZM82.7721 27.1385C82.7721 26.5108 82.6856 26.0493 82.5127 25.7539C82.3397 25.4462 81.9938 25.2924 81.475 25.2924H81.2897V24.7385H89.2388C90.2888 24.7385 90.8138 25.2308 90.8138 26.2154V27.7847H90.258C90.258 27.0093 90.0603 26.4493 89.665 26.1047C89.2821 25.7477 88.7077 25.5693 87.9418 25.5693H85.1809V36.9231H82.7721V27.1385ZM92.8511 27.1385C92.8511 26.5108 92.7647 26.0493 92.5917 25.7539C92.4188 25.4462 92.0729 25.2924 91.5541 25.2924H91.3688V24.7385H93.5923C94.037 24.7385 94.3767 24.8124 94.6115 24.9601C94.8462 25.1077 95.0129 25.3539 95.1117 25.6985C95.2106 26.0308 95.26 26.5108 95.26 27.1385V34.5231L100.634 24.7385H102.857V36.9231H100.448V27.1385L95.0747 36.9231H92.8511V27.1385Z" fill="#290247"/>
<path d="M0 4.61548H13.8971L12.3529 21.5386H0V4.61548Z" fill="#290247"/>
<path d="M16.2132 4.61548H19.3015L20.0735 21.5386H15.4412L16.2132 4.61548Z" fill="#290247"/>
<path d="M22.3896 4.61548H25.4779V21.5386H23.1617L22.3896 4.61548Z" fill="#290247"/>
<path d="M32.4264 4.61548H27.7941V21.5386H32.4264V4.61548Z" fill="#290247"/>
<path d="M33.9707 6.1538L35.4917 5.88843L37.8308 21.5384H36.2867L33.9707 6.1538Z" fill="#290247"/>
<path d="M4.88547 25.5385C4.88547 25.3293 4.85665 25.1755 4.799 25.077C4.74135 24.9744 4.62606 24.9232 4.45312 24.9232H4.39136V24.8001H7.23253V27.6924H6.67665V25.0462H5.44136V27.6924H4.88547V25.5385ZM9.31512 27.7539C9.03511 27.7539 8.79217 27.6882 8.58629 27.557C8.3804 27.4216 8.22393 27.239 8.11688 27.0093C8.00981 26.7796 7.95629 26.5251 7.95629 26.2462C7.95629 25.9673 8.00981 25.7128 8.11688 25.4831C8.22393 25.2535 8.3804 25.0728 8.58629 24.9416C8.79217 24.8062 9.03511 24.7385 9.31512 24.7385C9.59511 24.7385 9.83805 24.8062 10.0439 24.9416C10.2498 25.0728 10.4063 25.2535 10.5134 25.4831C10.6204 25.7128 10.6739 25.9673 10.6739 26.2462C10.6739 26.5251 10.6204 26.7796 10.5134 27.0093C10.4063 27.239 10.2498 27.4216 10.0439 27.557C9.83805 27.6882 9.59511 27.7539 9.31512 27.7539ZM9.31512 27.5078C9.46746 27.5078 9.60129 27.4524 9.71659 27.3416C9.83599 27.2308 9.92659 27.079 9.98835 26.8862C10.0542 26.6935 10.0872 26.4801 10.0872 26.2462C10.0872 26.0124 10.0542 25.799 9.98835 25.6062C9.92659 25.4135 9.83599 25.2616 9.71659 25.1508C9.60129 25.0401 9.46746 24.9847 9.31512 24.9847C9.16276 24.9847 9.02688 25.0401 8.90747 25.1508C8.79217 25.2616 8.70158 25.4135 8.6357 25.6062C8.57394 25.799 8.54306 26.0124 8.54306 26.2462C8.54306 26.4801 8.57394 26.6935 8.6357 26.8862C8.70158 27.079 8.79217 27.2308 8.90747 27.3416C9.02688 27.4524 9.16276 27.5078 9.31512 27.5078ZM13.665 27.7539C13.3315 27.7539 13.033 27.5898 12.7694 27.2616L12.0592 26.3693V27.6924H11.5033V25.5385C11.5033 25.3293 11.4744 25.1755 11.4168 25.077C11.3592 24.9744 11.2439 24.9232 11.0709 24.9232H10.9474V24.8001H11.5033C11.6556 24.8001 11.7689 24.8205 11.843 24.8616C11.9212 24.8985 11.9768 24.9682 12.0097 25.0708C12.0427 25.1735 12.0592 25.3293 12.0592 25.5385V26.277L12.8312 25.2001C12.9259 25.0688 13.035 24.9704 13.1586 24.9047C13.2862 24.835 13.4447 24.8001 13.6342 24.8001H13.7886V24.9539C13.5497 24.9539 13.3644 25.0462 13.2327 25.2308L12.5533 26.1847L13.2636 27.077C13.3789 27.2247 13.4921 27.3396 13.6033 27.4216C13.7186 27.5036 13.8421 27.555 13.9739 27.5755V27.6924C13.8833 27.7335 13.7803 27.7539 13.665 27.7539ZM14.6722 28.7385C14.874 28.7385 15.0387 28.6913 15.1663 28.597C15.2981 28.5067 15.4114 28.3385 15.506 28.0924L15.6295 27.7539L14.6413 25.3539C14.5261 25.0585 14.2996 24.8944 13.9619 24.8616V24.7385H14.4869C14.8452 24.7385 15.0922 24.9027 15.2281 25.2308L15.9322 26.9355L16.7104 24.8001H17.0192L15.8148 28.0924C15.6955 28.4165 15.5638 28.6359 15.4196 28.7508C15.2755 28.8658 15.0881 28.9231 14.8575 28.9231H14.6722V28.7385ZM17.7028 25.5385C17.7028 25.3293 17.6741 25.1755 17.6164 25.077C17.5588 24.9744 17.4434 24.9232 17.2705 24.9232H17.2087V24.8001H20.0499V27.6924H19.494V25.0462H18.2587V27.6924H17.7028V25.5385ZM21.6321 27.7539C21.5004 27.7539 21.3666 27.7273 21.2307 27.6739C21.0948 27.6165 20.9774 27.5242 20.8786 27.397C20.784 27.2698 20.7366 27.1016 20.7366 26.8924C20.7366 26.5805 20.8808 26.359 21.1689 26.2278C21.4614 26.0965 21.8421 26.0308 22.3116 26.0308H22.4968C22.4968 25.6288 22.4413 25.3539 22.3301 25.2062C22.2189 25.0585 22.0583 24.9847 21.8483 24.9847C21.663 24.9847 21.5148 25.0236 21.4036 25.1016C21.2924 25.1796 21.2143 25.315 21.1689 25.5078H20.891C20.891 25.3682 20.8993 25.2596 20.9157 25.1816C20.9322 25.0996 20.9754 25.0236 21.0454 24.9539C21.1195 24.8801 21.241 24.8267 21.4098 24.7939C21.5827 24.757 21.7702 24.7385 21.9718 24.7385C22.3054 24.7385 22.569 24.8288 22.7624 25.0093C22.9561 25.1858 23.0527 25.5262 23.0527 26.0308V27.6924H22.7439L22.5277 27.4155H22.4968C22.4227 27.5098 22.3137 27.5898 22.1695 27.6555C22.0254 27.7211 21.8463 27.7539 21.6321 27.7539ZM21.9101 27.477C22.046 27.477 22.1593 27.4442 22.2498 27.3785C22.3404 27.3128 22.4227 27.2227 22.4968 27.1078V26.277H22.3116C22.0069 26.277 21.766 26.3344 21.5889 26.4493C21.4119 26.5601 21.3233 26.7078 21.3233 26.8924C21.3233 27.0811 21.3789 27.2267 21.4901 27.3293C21.6054 27.4278 21.7455 27.477 21.9101 27.477ZM24.0005 25.5385C24.0005 25.3293 23.9718 25.1755 23.914 25.077C23.8564 24.9744 23.7411 24.9232 23.5682 24.9232H23.4755V24.8001H24.0005C24.1529 24.8001 24.2661 24.8205 24.3402 24.8616C24.4185 24.8985 24.4741 24.9682 24.507 25.0708C24.54 25.1735 24.5564 25.3293 24.5564 25.5385V27.1385L25.8535 24.8001H26.4093V27.6924H25.8535V25.3539L24.5564 27.6924H24.0005V25.5385ZM25.2049 24.4862C24.8509 24.4862 24.5833 24.3221 24.402 23.9939L24.5255 23.9016C24.608 23.9836 24.7006 24.0451 24.8034 24.0862C24.9064 24.1273 25.0403 24.1478 25.2049 24.1478C25.3697 24.1478 25.5036 24.1273 25.6064 24.0862C25.7094 24.0451 25.802 23.9836 25.8843 23.9016L26.0079 23.9939C25.8267 24.3221 25.5591 24.4862 25.2049 24.4862ZM28.083 25.0462H27.7742C27.5807 25.0462 27.4241 25.1016 27.3048 25.2124C27.1854 25.319 27.1256 25.4688 27.1256 25.6616H27.0021V25.2924C27.0021 24.9642 27.1565 24.8001 27.4654 24.8001H29.658V25.0462H28.6389V27.6924H28.083V25.0462ZM31.2389 27.7539C30.9589 27.7539 30.7222 27.6882 30.5286 27.557C30.3351 27.4216 30.1889 27.2411 30.09 27.0155C29.9912 26.7858 29.9418 26.5293 29.9418 26.2462C29.9418 25.9673 29.9912 25.7128 30.09 25.4831C30.1889 25.2535 30.3309 25.0728 30.5162 24.9416C30.7057 24.8062 30.926 24.7385 31.1771 24.7385C31.5931 24.7385 31.9019 24.8555 32.1036 25.0893C32.3096 25.319 32.4124 25.6535 32.4124 26.0924L32.4 26.3385H30.5286C30.5286 26.6832 30.6027 26.9642 30.7509 27.1816C30.8992 27.399 31.103 27.5078 31.3624 27.5078C31.556 27.5078 31.7186 27.4667 31.8503 27.3847C31.9862 27.3027 32.1119 27.1796 32.2271 27.0155L32.3506 27.1078C32.2147 27.3335 32.0563 27.4975 31.875 27.6001C31.6939 27.7027 31.4819 27.7539 31.2389 27.7539ZM31.8256 26.0924C31.8256 25.7313 31.7722 25.4565 31.665 25.2678C31.558 25.079 31.3954 24.9847 31.1771 24.9847C31.0536 24.9847 30.9424 25.0339 30.8436 25.1324C30.7447 25.2267 30.6666 25.3581 30.6089 25.5262C30.5554 25.6944 30.5286 25.8831 30.5286 26.0924H31.8256ZM17.3687 30.1539C17.3687 29.9447 17.3398 29.7908 17.2822 29.6924C17.2246 29.5898 17.1093 29.5385 16.9363 29.5385H16.8437V29.4155H17.3687C17.5211 29.4155 17.6343 29.4359 17.7084 29.477C17.7867 29.5139 17.8423 29.5836 17.8751 29.6862C17.908 29.7888 17.9246 29.9447 17.9246 30.1539V31.7539L19.2216 29.4155H19.7775V32.3078H19.2216V29.9693L17.9246 32.3078H17.3687V30.1539ZM10.7147 35.7355C10.5294 35.8093 10.3235 35.8462 10.0971 35.8462C9.78002 35.8462 9.51443 35.7827 9.30032 35.6555C9.09032 35.5242 8.98532 35.2904 8.98532 34.9539V34.7693C8.98532 34.5601 8.95649 34.4062 8.89885 34.3078C8.8412 34.2051 8.72591 34.1539 8.55297 34.1539H8.49121V34.0308H9.01621C9.16855 34.0308 9.28179 34.0513 9.35591 34.0924C9.43414 34.1293 9.48972 34.199 9.52268 34.3016C9.55561 34.4042 9.57209 34.5601 9.57209 34.7693V35.0155C9.57209 35.2165 9.62561 35.3642 9.73268 35.4585C9.83973 35.5528 9.97149 35.6001 10.128 35.6001C10.3338 35.6001 10.5294 35.5632 10.7147 35.4893V34.0308H11.2706V36.9231H10.7147V35.7355ZM12.2477 34.7693C12.2477 34.5601 12.2189 34.4062 12.1613 34.3078C12.1036 34.2051 11.9883 34.1539 11.8154 34.1539H11.7228V34.0308H12.2477C12.4001 34.0308 12.5133 34.0513 12.5875 34.0924C12.6657 34.1293 12.7213 34.199 12.7542 34.3016C12.7872 34.4042 12.8036 34.5601 12.8036 34.7693V36.3693L14.1007 34.0308H14.6566V36.9231H14.1007V34.5847L12.8036 36.9231H12.2477V34.7693ZM16.3303 34.277H16.0214C15.8278 34.277 15.6714 34.3324 15.552 34.4431C15.4326 34.5498 15.3729 34.6996 15.3729 34.8924H15.2493V34.5231C15.2493 34.195 15.4037 34.0308 15.7126 34.0308H17.9053V34.277H16.8861V36.9231H16.3303V34.277ZM19.1321 36.9847C19.0003 36.9847 18.8665 36.9581 18.7306 36.9047C18.5947 36.8473 18.4774 36.755 18.3785 36.6278C18.2839 36.5005 18.2365 36.3324 18.2365 36.1231C18.2365 35.8113 18.3805 35.5898 18.6688 35.4585C18.9611 35.3273 19.3421 35.2616 19.8115 35.2616H19.9968C19.9968 34.8596 19.9412 34.5847 19.83 34.437C19.7188 34.2893 19.5582 34.2155 19.3482 34.2155C19.1629 34.2155 19.0147 34.2544 18.9035 34.3324C18.7924 34.4104 18.7141 34.5458 18.6688 34.7385H18.3909C18.3909 34.599 18.3991 34.4904 18.4156 34.4124C18.4321 34.3304 18.4753 34.2544 18.5453 34.1847C18.6194 34.1108 18.7409 34.0575 18.9097 34.0247C19.0826 33.9878 19.2699 33.9693 19.4718 33.9693C19.8053 33.9693 20.0689 34.0596 20.2624 34.2401C20.4558 34.4165 20.5526 34.757 20.5526 35.2616V36.9231H20.2438L20.0276 36.6462H19.9968C19.9226 36.7405 19.8135 36.8205 19.6694 36.8862C19.5253 36.9519 19.3462 36.9847 19.1321 36.9847ZM19.41 36.7078C19.5459 36.7078 19.6591 36.675 19.7497 36.6093C19.8403 36.5436 19.9226 36.4535 19.9968 36.3385V35.5078H19.8115C19.5068 35.5078 19.2659 35.5651 19.0888 35.6801C18.9117 35.7908 18.8232 35.9385 18.8232 36.1231C18.8232 36.3119 18.8788 36.4575 18.99 36.5601C19.1053 36.6585 19.2452 36.7078 19.41 36.7078ZM21.5004 34.7693C21.5004 34.5601 21.4716 34.4062 21.414 34.3078C21.3562 34.2051 21.241 34.1539 21.0681 34.1539H20.9754V34.0308H21.5004C21.6527 34.0308 21.766 34.0513 21.8401 34.0924C21.9183 34.1293 21.9739 34.199 22.0069 34.3016C22.0398 34.4042 22.0563 34.5601 22.0563 34.7693V36.3693L23.3534 34.0308H23.9093V36.9231H23.3534V34.5847L22.0563 36.9231H21.5004V34.7693ZM22.7048 33.717C22.3506 33.717 22.083 33.5528 21.9019 33.2247L22.0254 33.1324C22.1077 33.2144 22.2004 33.2759 22.3034 33.317C22.4062 33.3581 22.5401 33.3785 22.7048 33.3785C22.8694 33.3785 23.0033 33.3581 23.1063 33.317C23.2091 33.2759 23.3018 33.2144 23.3843 33.1324L23.5078 33.2247C23.3265 33.5528 23.0589 33.717 22.7048 33.717ZM25.5829 34.277H25.2741C25.0805 34.277 24.924 34.3324 24.8047 34.4431C24.6852 34.5498 24.6256 34.6996 24.6256 34.8924H24.502V34.5231C24.502 34.195 24.6564 34.0308 24.9653 34.0308H27.1579V34.277H26.1388V36.9231H25.5829V34.277ZM28.7388 36.9847C28.4588 36.9847 28.222 36.919 28.0285 36.7878C27.835 36.6524 27.6888 36.4719 27.59 36.2462C27.4911 36.0165 27.4417 35.7601 27.4417 35.477C27.4417 35.1981 27.4911 34.9436 27.59 34.7139C27.6888 34.4842 27.8308 34.3036 28.0161 34.1724C28.2056 34.037 28.4258 33.9693 28.677 33.9693C29.0929 33.9693 29.4017 34.0862 29.6035 34.3201C29.8093 34.5498 29.9123 34.8842 29.9123 35.3231L29.9 35.5693H28.0285C28.0285 35.9139 28.1026 36.195 28.2508 36.4124C28.3991 36.6298 28.6029 36.7385 28.8623 36.7385C29.0558 36.7385 29.2185 36.6975 29.3503 36.6155C29.4861 36.5335 29.6117 36.4104 29.727 36.2462L29.8506 36.3385C29.7147 36.5642 29.5561 36.7282 29.375 36.8308C29.1938 36.9335 28.9817 36.9847 28.7388 36.9847ZM29.3256 35.3231C29.3256 34.9621 29.272 34.6873 29.165 34.4985C29.058 34.3098 28.8952 34.2155 28.677 34.2155C28.5535 34.2155 28.4423 34.2647 28.3435 34.3631C28.2447 34.4575 28.1664 34.5888 28.1088 34.757C28.0552 34.9251 28.0285 35.1139 28.0285 35.3231H29.3256Z" fill="#290247"/>
</svg>
