<svg width="16" height="16" viewBox="0 0 16 16" fill="none" xmlns="http://www.w3.org/2000/svg">
<path fill-rule="evenodd" clip-rule="evenodd" d="M7.10869 12.2276C4.28168 12.2276 1.98999 9.93595 1.98999 7.10894C1.98999 4.28193 4.28168 1.99023 7.10869 1.99023C9.9357 1.99023 12.2274 4.28193 12.2274 7.10894C12.2274 8.31409 11.8109 9.42244 11.1139 10.2968C11.1432 10.3122 11.1715 10.3304 11.1985 10.3508C11.2196 10.3667 11.2398 10.3845 11.2591 10.404L14.8128 13.9577C15.0491 14.194 15.0491 14.577 14.8128 14.8133C14.5766 15.0492 14.1935 15.0492 13.9573 14.8133L10.4037 11.2597C10.3597 11.2156 10.3238 11.1665 10.2962 11.1143C9.42163 11.8114 8.31384 12.2276 7.10869 12.2276ZM11.2967 7.10894C11.2967 9.42199 9.42163 11.297 7.10869 11.297C4.79576 11.297 2.92066 9.42199 2.92066 7.10894C2.92066 4.79589 4.79576 2.92091 7.10869 2.92091C9.42163 2.92091 11.2967 4.79589 11.2967 7.10894Z" fill="#303030"/>
</svg>
