<svg width="24" height="24" viewBox="0 0 24 24" fill="none" xmlns="http://www.w3.org/2000/svg">
<g clip-path="url(#clip0_25_3175)">
<path d="M11.7379 20.4134C11.7379 19.1496 10.7135 18.1252 9.44992 18.1252C8.1861 18.1252 7.16165 19.1496 7.16165 20.4132C7.16165 21.677 8.1861 22.7015 9.44992 22.7015C10.7128 22.7001 11.7366 21.6766 11.7379 20.4134V20.4134ZM7.97329 20.4134C7.97329 19.5978 8.63422 18.9367 9.44992 18.9367C10.2653 18.9367 10.9263 19.5978 10.9263 20.4132C10.9263 21.2288 10.2653 21.8899 9.44992 21.8899C8.63468 21.889 7.97416 21.2284 7.97324 20.4134L7.97329 20.4134ZM17.9227 22.7015C19.1865 22.7016 20.211 21.6772 20.211 20.4134C20.2112 19.1496 19.1867 18.1252 17.9229 18.1252C16.659 18.1252 15.6347 19.1496 15.6347 20.4134C15.6363 21.6763 16.6596 22.6999 17.9228 22.7015H17.9227ZM17.9227 18.9367C18.7381 18.9367 19.3994 19.5978 19.3994 20.4132C19.3996 21.2286 18.7383 21.8899 17.9229 21.8899C17.1074 21.8899 16.4462 21.2288 16.4462 20.4134C16.4472 19.5984 17.1077 18.9379 17.9227 18.9367ZM0.405795 0.811609H2.88115C3.69563 0.808421 4.39012 1.40152 4.51424 2.20673L6.47365 14.5842C6.65869 15.7843 7.69405 16.6686 8.90842 16.6639H21.0202C21.1267 16.6621 21.2281 16.6185 21.3028 16.5426C21.3774 16.4667 21.4192 16.3645 21.4192 16.2581C21.4192 16.1516 21.3774 16.0494 21.3028 15.9735C21.2281 15.8976 21.1267 15.8541 21.0202 15.8523H8.90842C8.09393 15.8555 7.39944 15.2621 7.27533 14.4572L6.94223 12.3528H19.3468C20.3971 12.3523 21.3319 11.687 21.6761 10.6949L23.9775 4.05275C23.9988 3.9916 24.0051 3.92624 23.996 3.86214C23.9868 3.79803 23.9625 3.73705 23.9249 3.68429C23.8874 3.63152 23.8378 3.58851 23.7802 3.55885C23.7227 3.52919 23.6588 3.51375 23.5941 3.5138H5.54276L5.31592 2.07972C5.13087 0.879551 4.09563 -0.00473453 2.88115 1.90737e-05H0.405795C0.29936 0.00181823 0.197892 0.0453626 0.123258 0.121268C0.0486249 0.197174 0.00680161 0.299363 0.00680161 0.405814C0.00680161 0.512265 0.0486249 0.614455 0.123258 0.69036C0.197892 0.766266 0.29936 0.80981 0.405795 0.811609ZM23.0239 4.32562L20.9093 10.4291C20.7967 10.7538 20.5857 11.0353 20.3057 11.2346C20.0256 11.4339 19.6905 11.5411 19.3468 11.5412H6.81359L5.67116 4.32539L23.0239 4.32562Z" fill="#110C1F"/>
</g>
<defs>
<clipPath id="clip0_25_3175">
<rect width="24" height="24" fill="white"/>
</clipPath>
</defs>
</svg>
